<mxfile host="app.diagrams.net" modified="2025-05-18T16:38:09.532243" agent="Python Script" version="14.6.13" type="device"><diagram id="fa1d467f-aa79-4535-8705-332b83d21954" name="Project Scout - Medallion Architecture"><mxGraphModel dx="1422" dy="798" grid="1" gridSize="10" guides="1" tooltips="1" connect="1" arrows="1" fold="1" page="1" pageScale="1" pageWidth="1400" pageHeight="800" math="0" shadow="0"><root><mxCell id="0" /><mxCell id="1" parent="0" /><mxCell id="bronze_swimlane" value="Bronze Layer (Raw Data)" style="shape=swimlane;startSize=30;whiteSpace=wrap;html=1;fillColor=#EFDABC;strokeColor=#D1D5DB;fontColor=#333333;fontSize=12;fontStyle=1;align=left;" vertex="1" parent="1"><mxGeometry x="120" y="80" width="1200" height="160" as="geometry" /></mxCell><mxCell id="silver_swimlane" value="Silver Layer (Processed Data)" style="shape=swimlane;startSize=30;whiteSpace=wrap;html=1;fillColor=#E6E8E9;strokeColor=#D1D5DB;fontColor=#333333;fontSize=12;fontStyle=1;align=left;" vertex="1" parent="1"><mxGeometry x="120" y="280" width="1200" height="160" as="geometry" /></mxCell><mxCell id="gold_swimlane" value="Gold Layer (Analytics Ready)" style="shape=swimlane;startSize=30;whiteSpace=wrap;html=1;fillColor=#FAF1D1;strokeColor=#D1D5DB;fontColor=#333333;fontSize=12;fontStyle=1;align=left;" vertex="1" parent="1"><mxGeometry x="120" y="480" width="1200" height="160" as="geometry" /></mxCell><mxCell id="data_factory" value="Data Ingestion" style="shape=image;aspect=fixed;image=data:image/svg+xml,PHN2ZyB4bWxucz0iaHR0cDovL3d3dy53My5vcmcvMjAwMC9zdmciIHZpZXdCb3g9IjAgMCAxOCAxOCI+PHBhdGggZmlsbD0iIzAwNzhENCIgZD0iTTAgMGgxOHYxOEgweiIvPjxwYXRoIGZpbGw9IiNGRkYiIGQ9Ik05IDRsNSA1LTUgNS01LTUgNS01eiIvPjwvc3ZnPg==;labelPosition=center;verticalLabelPosition=bottom;verticalAlign=top;whiteSpace=wrap;html=1;fontSize=12;fontColor=#333333;fillColor=#FFFFFF;strokeColor=#D1D5DB;" vertex="1" parent="1"><mxGeometry x="220" y="140" width="60" height="60" as="geometry" /></mxCell><mxCell id="data_lake" value="Raw Transcript Store" style="shape=image;aspect=fixed;image=data:image/svg+xml,PHN2ZyB4bWxucz0iaHR0cDovL3d3dy53My5vcmcvMjAwMC9zdmciIHZpZXdCb3g9IjAgMCAxOCAxOCI+PHBhdGggZmlsbD0iIzAwNzhENCIgZD0iTTAgMGgxOHYxOEgweiIvPjxwYXRoIGZpbGw9IiNGRkYiIGQ9Ik05IDJsNyAxNEgyTDkgMnoiLz48L3N2Zz4=;labelPosition=center;verticalLabelPosition=bottom;verticalAlign=top;whiteSpace=wrap;html=1;fontSize=12;fontColor=#333333;fillColor=#FFFFFF;strokeColor=#D1D5DB;" vertex="1" parent="1"><mxGeometry x="470" y="140" width="60" height="60" as="geometry" /></mxCell><mxCell id="ingest_connector" value="Ingest" style="edgeStyle=orthogonalEdgeStyle;rounded=0;orthogonalLoop=1;jettySize=auto;exitX=1;exitY=0.5;entryX=0;entryY=0.5;endArrow=classic;strokeColor=#6B7280;strokeWidth=2;fontSize=10;fontColor=#6B7280;" edge="1" parent="1" source="data_factory" target="data_lake"><mxGeometry relative="1" as="geometry" /></mxCell><mxCell id="databricks" value="Data Cleaning &amp; Chunking" style="shape=image;aspect=fixed;image=data:image/svg+xml,PHN2ZyB4bWxucz0iaHR0cDovL3d3dy53My5vcmcvMjAwMC9zdmciIHZpZXdCb3g9IjAgMCAxOCAxOCI+PHBhdGggZmlsbD0iI0ZGMzYyMSIgZD0iTTAgMGgxOHYxOEgweiIvPjxwYXRoIGZpbGw9IiNGRkYiIGQ9Ik05IDJsNCA3LTQgNy00LTcgNC03eiIvPjwvc3ZnPg==;labelPosition=center;verticalLabelPosition=bottom;verticalAlign=top;whiteSpace=wrap;html=1;fontSize=12;fontColor=#333333;fillColor=#FFFFFF;strokeColor=#D1D5DB;" vertex="1" parent="1"><mxGeometry x="220" y="340" width="60" height="60" as="geometry" /></mxCell><mxCell id="sql_database" value="Processed Storage" style="shape=image;aspect=fixed;image=data:image/svg+xml,PHN2ZyB4bWxucz0iaHR0cDovL3d3dy53My5vcmcvMjAwMC9zdmciIHZpZXdCb3g9IjAgMCAxOCAxOCI+PHBhdGggZmlsbD0iIzAwNzhENCIgZD0iTTAgMGgxOHYxOEgweiIvPjxwYXRoIGZpbGw9IiNGRkYiIGQ9Ik05IDNjMyAwIDUgMSA1IDJ2OGMwIDEtMiAyLTUgMnMtNS0xLTUtMlY1YzAtMSAyLTIgNS0yeiIvPjwvc3ZnPg==;labelPosition=center;verticalLabelPosition=bottom;verticalAlign=top;whiteSpace=wrap;html=1;fontSize=12;fontColor=#333333;fillColor=#FFFFFF;strokeColor=#D1D5DB;" vertex="1" parent="1"><mxGeometry x="470" y="340" width="60" height="60" as="geometry" /></mxCell><mxCell id="store_connector" value="Store" style="edgeStyle=orthogonalEdgeStyle;rounded=0;orthogonalLoop=1;jettySize=auto;exitX=1;exitY=0.5;entryX=0;entryY=0.5;endArrow=classic;strokeColor=#6B7280;strokeWidth=2;fontSize=10;fontColor=#6B7280;" edge="1" parent="1" source="databricks" target="sql_database"><mxGeometry relative="1" as="geometry" /></mxCell><mxCell id="audit_log" value="Audit Log" style="shape=mxgraph.azure.file;fillColor=#FFFFFF;strokeColor=#6B7280;dashed=1;fontColor=#333333;fontSize=12;" vertex="1" parent="1"><mxGeometry x="470" y="440" width="60" height="42.0" as="geometry" /></mxCell><mxCell id="audit_connector" value="" style="edgeStyle=orthogonalEdgeStyle;rounded=0;orthogonalLoop=1;jettySize=auto;exitX=0.5;exitY=1;entryX=0.5;entryY=0;endArrow=classic;strokeColor=#6B7280;strokeWidth=2;fontSize=10;fontColor=#6B7280;dashed=1;" edge="1" parent="1" source="sql_database" target="audit_log"><mxGeometry relative="1" as="geometry" /></mxCell><mxCell id="cognitive_search" value="Embedding Store" style="shape=image;aspect=fixed;image=data:image/svg+xml,PHN2ZyB4bWxucz0iaHR0cDovL3d3dy53My5vcmcvMjAwMC9zdmciIHZpZXdCb3g9IjAgMCAxOCAxOCI+PHBhdGggZmlsbD0iIzAwNzhENCIgZD0iTTAgMGgxOHYxOEgweiIvPjxwYXRoIGZpbGw9IiNGRkYiIGQ9Ik0xMSA3YzEgMCAyIDEgMiAycy0xIDItMiAyLTItMS0yLTIgMS0yIDItMnpNNiA2bDEgNkg1TDQgNmgyeiIvPjwvc3ZnPg==;labelPosition=center;verticalLabelPosition=bottom;verticalAlign=top;whiteSpace=wrap;html=1;fontSize=12;fontColor=#333333;fillColor=#FFFFFF;strokeColor=#D1D5DB;" vertex="1" parent="1"><mxGeometry x="220" y="540" width="60" height="60" as="geometry" /></mxCell><mxCell id="power_bi" value="Dashboard" style="shape=image;aspect=fixed;image=data:image/svg+xml,PHN2ZyB4bWxucz0iaHR0cDovL3d3dy53My5vcmcvMjAwMC9zdmciIHZpZXdCb3g9IjAgMCAxOCAxOCI+PHBhdGggZmlsbD0iI0YyQzgxMSIgZD0iTTAgMGgxOHYxOEgweiIvPjxwYXRoIGZpbGw9IiNGRkYiIGQ9Ik01IDhoMnY2SDVWOHptMy0yaDJ2OEg4VjZ6bTMtM2gydjExaC0yVjN6Ii8+PC9zdmc+;labelPosition=center;verticalLabelPosition=bottom;verticalAlign=top;whiteSpace=wrap;html=1;fontSize=12;fontColor=#333333;fillColor=#FFFFFF;strokeColor=#D1D5DB;" vertex="1" parent="1"><mxGeometry x="470" y="540" width="60" height="60" as="geometry" /></mxCell><mxCell id="serve_connector" value="Serve" style="edgeStyle=orthogonalEdgeStyle;rounded=0;orthogonalLoop=1;jettySize=auto;exitX=1;exitY=0.5;entryX=0;entryY=0.5;endArrow=classic;strokeColor=#6B7280;strokeWidth=2;fontSize=10;fontColor=#6B7280;" edge="1" parent="1" source="cognitive_search" target="power_bi"><mxGeometry relative="1" as="geometry" /></mxCell><mxCell id="transform_connector" value="Transform" style="edgeStyle=orthogonalEdgeStyle;rounded=0;orthogonalLoop=1;jettySize=auto;exitX=0.5;exitY=1;entryX=0.5;entryY=0;endArrow=classic;strokeColor=#6B7280;strokeWidth=2;fontSize=10;fontColor=#6B7280;" edge="1" parent="1" source="data_lake" target="databricks"><mxGeometry relative="1" as="geometry" points="[{'x': '500', 'y': '240'}, {'x': '250', 'y': '310'}]" /></mxCell><mxCell id="embed_connector" value="Embed" style="edgeStyle=orthogonalEdgeStyle;rounded=0;orthogonalLoop=1;jettySize=auto;exitX=0.5;exitY=1;entryX=0.5;entryY=0;endArrow=classic;strokeColor=#6B7280;strokeWidth=2;fontSize=10;fontColor=#6B7280;" edge="1" parent="1" source="sql_database" target="cognitive_search"><mxGeometry relative="1" as="geometry" points="[{'x': '500', 'y': '420'}, {'x': '250', 'y': '510'}]" /></mxCell></root></mxGraphModel></diagram></mxfile>